<svg xmlns="http://www.w3.org/2000/svg" viewBox="0 0 400 400">
  <defs>
    <radialGradient id="glow" cx="50%" cy="50%" r="50%">
      <stop offset="0%" stop-color="#8ab4f8" stop-opacity="0.65" />
      <stop offset="100%" stop-color="#8ab4f8" stop-opacity="0" />
    </radialGradient>
  </defs>
  <rect width="400" height="400" fill="black" opacity="0" />
  <g fill="url(#glow)" stroke="#8ab4f8" stroke-width="1.2" stroke-linecap="round" stroke-dasharray="12 24" opacity="0.35">
    <circle cx="60" cy="80" r="46" />
    <circle cx="320" cy="120" r="38" />
    <circle cx="220" cy="300" r="42" />
    <circle cx="120" cy="260" r="28" />
  </g>
  <g fill="none" stroke="#8ab4f8" stroke-width="2" stroke-linecap="round" opacity="0.6">
    <path d="M50 180l18 18-18 18-18-18 18-18z" />
    <path d="M330 220l14 14-14 14-14-14 14-14z" />
    <path d="M200 90l10 10-10 10-10-10 10-10z" />
  </g>
  <g fill="#e6edf3" opacity="0.45">
    <circle cx="80" cy="320" r="3" />
    <circle cx="140" cy="60" r="3" />
    <circle cx="360" cy="200" r="3" />
    <circle cx="260" cy="40" r="2" />
    <circle cx="40" cy="220" r="2" />
  </g>
</svg>
